<?xml version="1.0" encoding="UTF-8" standalone="no"?>
<svg
   xmlns:dc="http://purl.org/dc/elements/1.1/"
   xmlns:cc="http://creativecommons.org/ns#"
   xmlns:rdf="http://www.w3.org/1999/02/22-rdf-syntax-ns#"
   xmlns:svg="http://www.w3.org/2000/svg"
   xmlns="http://www.w3.org/2000/svg"
   id="svg8"
   version="1.1"
   viewBox="0 0 79.375003 79.375"
   height="300"
   width="300">
  <defs
     id="defs2" />
  <metadata
     id="metadata5">
    <rdf:RDF>
      <cc:Work
         rdf:about="">
        <dc:format>image/svg+xml</dc:format>
        <dc:type
           rdf:resource="http://purl.org/dc/dcmitype/StillImage" />
        <dc:title></dc:title>
      </cc:Work>
    </rdf:RDF>
  </metadata>
  <g
     transform="translate(-66.892539,-67.426309)"
     id="layer1">
    <path
       id="path830"
       d="m 141.38202,136.51007 c 2.04841,-1.02308 3.6297,-2.61067 4.58271,-4.60099 l 0.30281,-0.63237 V 107.12428 82.971838 l -0.39567,-0.732409 c -1.46387,-2.709742 -2.8583,-3.956724 -5.14788,-4.603577 l -0.67707,-0.191286 -32.8804,-0.02549 c -24.414008,-0.01889 -33.086718,-4.19e-4 -33.68166,0.07187 -3.13188,0.380754 -5.540307,2.493704 -6.366551,5.58546 l -0.191266,0.715706 -0.02759,22.681978 c -0.01889,15.58797 5.9e-4,22.9781 0.06258,23.62878 0.133869,1.40729 0.456855,2.33263 1.193353,3.41885 0.78224,1.15371 2.508229,2.51085 3.694245,2.90478 0.238998,0.0794 0.480226,0.19937 0.536054,0.26665 0.08827,0.10629 4.573708,0.12231 34.243185,0.12231 h 34.14165 z m -63.58358,-7.31318 c -1.529307,-0.18102 -2.452123,-0.74096 -2.884827,-1.75042 -0.426127,-0.99411 -0.415911,-0.50816 -0.415911,-19.79165 0,-9.881722 0.02309,-18.027012 0.05138,-18.100644 0.05778,-0.150542 0.490922,-0.180921 0.816228,-0.05728 0.110847,0.04218 0.560835,0.437492 0.999957,0.878552 0.439131,0.44106 3.350149,3.25305 6.468914,6.24886 3.118775,2.99581 8.736373,8.400062 12.483557,12.009452 3.747174,3.60938 7.117732,6.8444 7.490122,7.18891 1.72377,1.59474 3.70612,2.43881 5.1729,2.20259 1.09506,-0.17635 2.13641,-0.66714 3.26025,-1.53652 0.56821,-0.43957 5.42166,-5.37428 23.12659,-23.513832 1.38572,-1.41974 2.71377,-2.85747 2.95123,-3.194951 0.36756,-0.522389 0.46837,-0.613594 0.67819,-0.613594 0.13554,0 0.35707,0.07877 0.49227,0.175032 l 0.2458,0.175033 -6e-5,17.619312 c -5e-5,11.45288 -0.0306,17.94152 -0.0874,18.53993 -0.19561,2.06273 -0.80717,2.91673 -2.41655,3.37449 l -0.6698,0.19051 -28.60637,0.0106 c -15.733503,0.006 -28.853925,-0.0187 -29.15649,-0.0545 z m 28.46196,-19.0864 c -0.24235,-0.0653 -0.57957,-0.17675 -0.74939,-0.2477 -1.02014,-0.42624 -1.29838,-0.69186 -13.176639,-12.578612 C 81.972061,86.914457 80.675998,85.588925 80.675998,85.360713 v -0.256752 h 26.829052 26.82906 l -0.002,0.190427 c -0.005,0.448078 -0.42137,0.918688 -3.42854,3.877275 -1.72398,1.696135 -6.85568,6.754775 -11.40376,11.241407 -4.54807,4.48664 -8.52085,8.35804 -8.82839,8.60311 -0.66552,0.53033 -1.41318,0.91953 -2.10485,1.09568 -0.62077,0.1581 -1.7164,0.15745 -2.30595,-10e-4 z"
       style="fill:#ffffff;fill-opacity:1;stroke:none;stroke-width:0.08463424" />
    <path
       id="path826"
       d=""
       style="fill:#000000;stroke-width:0.08466666" />
  </g>
</svg>
