<?xml version="1.0" encoding="UTF-8" standalone="no"?>
<svg
   xmlns:dc="http://purl.org/dc/elements/1.1/"
   xmlns:cc="http://creativecommons.org/ns#"
   xmlns:rdf="http://www.w3.org/1999/02/22-rdf-syntax-ns#"
   xmlns:svg="http://www.w3.org/2000/svg"
   xmlns="http://www.w3.org/2000/svg"
   id="svg8"
   version="1.1"
   viewBox="0 0 11.493147 11.209467"
   height="11.209467mm"
   width="11.493147mm">
  <defs
     id="defs2" />
  <metadata
     id="metadata5">
    <rdf:RDF>
      <cc:Work
         rdf:about="">
        <dc:format>image/svg+xml</dc:format>
        <dc:type
           rdf:resource="http://purl.org/dc/dcmitype/StillImage" />
        <dc:title></dc:title>
      </cc:Work>
    </rdf:RDF>
  </metadata>
  <g
     transform="translate(-69.659677,-167.98604)"
     id="layer1">
    <path
       d="m 75.405721,167.98604 c -3.173236,0 -5.746044,2.57281 -5.746044,5.74675 0,2.53894 1.646414,4.69265 3.929944,5.45289 0.287514,0.0526 0.392289,-0.12489 0.392289,-0.27729 0,-0.13617 -0.0049,-0.49777 -0.0078,-0.97719 -1.598436,0.34713 -1.935692,-0.77047 -1.935692,-0.77047 -0.261408,-0.66393 -0.638175,-0.84067 -0.638175,-0.84067 -0.521758,-0.3563 0.03951,-0.34925 0.03951,-0.34925 0.576792,0.0406 0.880181,0.59232 0.880181,0.59232 0.512586,0.87806 1.345141,0.62441 1.672519,0.4773 0.05221,-0.37112 0.200378,-0.62441 0.364772,-0.76799 -1.275997,-0.14499 -2.617611,-0.63818 -2.617611,-2.84022 0,-0.62724 0.224014,-1.14017 0.591609,-1.54199 -0.05927,-0.14534 -0.25647,-0.72954 0.05609,-1.52082 0,0 0.4826,-0.15452 1.580445,0.58914 0.458258,-0.12771 0.95003,-0.19121 1.438628,-0.19333 0.487891,0.002 0.979663,0.0656 1.438627,0.19333 1.097139,-0.74366 1.578681,-0.58914 1.578681,-0.58914 0.313619,0.79128 0.116416,1.37548 0.05715,1.52082 0.3683,0.40182 0.590903,0.91475 0.590903,1.54199 0,2.20769 -1.343731,2.69346 -2.623961,2.83563 0.206375,0.17745 0.390172,0.52811 0.390172,1.06433 0,0.768 -0.0071,1.38783 -0.0071,1.57621 0,0.15381 0.103364,0.33267 0.395111,0.27658 2.281767,-0.76165 3.92677,-2.91394 3.92677,-5.45218 0,-3.17394 -2.573161,-5.74675 -5.747103,-5.74675"
       style="fill:#ffffff;fill-opacity:1;fill-rule:evenodd;stroke:none;stroke-width:0.35277778"
       id="path1011" />
  </g>
</svg>
