<?xml version="1.0" encoding="UTF-8" standalone="no"?>
<svg
   xmlns:dc="http://purl.org/dc/elements/1.1/"
   xmlns:cc="http://creativecommons.org/ns#"
   xmlns:rdf="http://www.w3.org/1999/02/22-rdf-syntax-ns#"
   xmlns:svg="http://www.w3.org/2000/svg"
   xmlns="http://www.w3.org/2000/svg"
   viewBox="0 0 138.29131 138.39206"
   height="138.39206"
   width="138.29131"
   xml:space="preserve"
   id="svg815"
   version="1.1"><metadata
     id="metadata821"><rdf:RDF><cc:Work
         rdf:about=""><dc:format>image/svg+xml</dc:format><dc:type
           rdf:resource="http://purl.org/dc/dcmitype/StillImage" /><dc:title></dc:title></cc:Work></rdf:RDF></metadata><defs
     id="defs819" /><g
     transform="matrix(1.3333333,0,0,-1.3333333,-195.95482,342.91847)"
     id="g823"><g
       transform="rotate(27.437717,218.56962,110.97112)"
       id="g930"><g
         id="g837"
         transform="translate(222.4442,273.7096)"><path
           d="m 0,0 -5.037,-9.687 c 45.404,-23.61 63.135,-79.756 39.525,-125.16 l 9.688,-5.038 C 70.563,-89.139 50.746,-26.387 0,0"
           style="fill:#e942aa;fill-opacity:1;fill-rule:nonzero;stroke:none"
           id="path839" /></g><g
         id="g841"
         transform="translate(217.4069,264.0222)"><path
           d="M 0,0 -5.037,-9.687 C 35.025,-30.519 50.67,-80.061 29.838,-120.123 l 9.687,-5.037 C 63.135,-79.756 45.404,-23.61 0,0"
           style="fill:#e52027;fill-opacity:1;fill-rule:nonzero;stroke:none"
           id="path843" /></g><g
         id="g845"
         transform="translate(212.3696,254.3348)"><path
           d="m 0,0 -5.037,-9.687 c 34.721,-18.055 48.279,-60.99 30.225,-95.711 l 9.687,-5.037 C 55.707,-70.373 40.062,-20.832 0,0"
           style="fill:#f25c1b;fill-opacity:1;fill-rule:nonzero;stroke:none"
           id="path847" /></g><g
         id="g849"
         transform="translate(207.3323,244.6474)"><path
           d="m 0,0 -5.037,-9.687 c 29.379,-15.277 40.852,-51.607 25.575,-80.986 l 9.687,-5.038 C 48.28,-60.99 34.721,-18.054 0,0"
           style="fill:#e9ea07;fill-opacity:1;fill-rule:nonzero;stroke:none"
           id="path851" /></g><g
         id="g853"
         transform="translate(202.2949,234.96)"><path
           d="M 0,0 -5.037,-9.687 C 19,-22.187 28.387,-51.911 15.888,-75.949 l 9.687,-5.037 C 40.852,-51.607 29.379,-15.277 0,0"
           style="fill:#2c935a;fill-opacity:1;fill-rule:nonzero;stroke:none"
           id="path855" /></g><g
         id="g857"
         transform="translate(197.2576,225.2726)"><path
           d="m 0,0 -5.037,-9.687 c 18.695,-9.722 25.996,-32.841 16.275,-51.537 l 9.687,-5.037 C 33.424,-42.224 24.037,-12.499 0,0"
           style="fill:#45b3bf;fill-opacity:1;fill-rule:nonzero;stroke:none"
           id="path859" /></g><g
         id="g861"
         transform="translate(192.2203,215.5852)"><path
           d="M 0,0 -5.037,-9.687 C 8.317,-16.631 13.532,-33.145 6.588,-46.499 l 9.687,-5.037 C 25.997,-32.841 18.696,-9.722 0,0"
           style="fill:#376fba;fill-opacity:1;fill-rule:nonzero;stroke:none"
           id="path863" /></g><g
         id="g865"
         transform="translate(187.183,205.8978)"><path
           d="m 0,0 -5.037,-9.687 c 8.012,-4.167 11.141,-14.075 6.975,-22.087 l 9.687,-5.038 C 18.569,-23.458 13.354,-6.944 0,0"
           style="fill:#642381;fill-opacity:1;fill-rule:nonzero;stroke:none"
           id="path867" /></g></g></g></svg>