<svg width="300" height="300" version="1.1" viewBox="0 0 79.375 79.375" xmlns="http://www.w3.org/2000/svg">
 <g transform="translate(-66.893 -67.426)">
  <path d="m141.38 136.51c2.0484-1.0231 3.6297-2.6107 4.5827-4.601l0.30281-0.63237v-48.305l-0.39567-0.73241c-1.4639-2.7097-2.8583-3.9567-5.1479-4.6036l-0.67707-0.19129-32.88-0.02549c-24.414-0.01889-33.087-4.19e-4 -33.682 0.07187-3.1319 0.38075-5.5403 2.4937-6.3666 5.5855l-0.19127 0.71571-0.02759 22.682c-0.01889 15.588 5.9e-4 22.978 0.06258 23.629 0.13387 1.4073 0.45686 2.3326 1.1934 3.4188 0.78224 1.1537 2.5082 2.5108 3.6942 2.9048 0.239 0.0794 0.48023 0.19937 0.53605 0.26665 0.08827 0.10629 4.5737 0.12231 34.243 0.12231h34.142zm-63.584-7.3132c-1.5293-0.18102-2.4521-0.74096-2.8848-1.7504-0.42613-0.99411-0.41591-0.50816-0.41591-19.792 0-9.8817 0.02309-18.027 0.05138-18.101 0.05778-0.15054 0.49092-0.18092 0.81623-0.05728 0.11085 0.04218 0.56084 0.43749 0.99996 0.87855 0.43913 0.44106 3.3501 3.253 6.4689 6.2489 3.1188 2.9958 8.7364 8.4001 12.484 12.009 3.7472 3.6094 7.1177 6.8444 7.4901 7.1889 1.7238 1.5947 3.7061 2.4388 5.1729 2.2026 1.0951-0.17635 2.1364-0.66714 3.2602-1.5365 0.56821-0.43957 5.4217-5.3743 23.127-23.514 1.3857-1.4197 2.7138-2.8575 2.9512-3.195 0.36756-0.52239 0.46837-0.61359 0.67819-0.61359 0.13554 0 0.35707 0.07877 0.49227 0.17503l0.2458 0.17503-6e-5 17.619c-5e-5 11.453-0.0306 17.942-0.0874 18.54-0.19561 2.0627-0.80717 2.9167-2.4166 3.3745l-0.6698 0.19051-28.606 0.0106c-15.734 6e-3 -28.854-0.0187-29.156-0.0545zm28.462-19.086c-0.24235-0.0653-0.57957-0.17675-0.74939-0.2477-1.0201-0.42624-1.2984-0.69186-13.177-12.579-10.362-10.37-11.658-11.695-11.658-11.923v-0.25675h53.658l-2e-3 0.19043c-5e-3 0.44808-0.42137 0.91869-3.4285 3.8773-1.724 1.6961-6.8557 6.7548-11.404 11.241-4.5481 4.4866-8.5208 8.358-8.8284 8.6031-0.66552 0.53033-1.4132 0.91953-2.1048 1.0957-0.62077 0.1581-1.7164 0.15745-2.306-1e-3z" fill="#fff"/>
 </g>
</svg>
