<?xml version="1.0" encoding="UTF-8" standalone="no"?>
<svg
   xmlns:dc="http://purl.org/dc/elements/1.1/"
   xmlns:cc="http://creativecommons.org/ns#"
   xmlns:rdf="http://www.w3.org/1999/02/22-rdf-syntax-ns#"
   xmlns:svg="http://www.w3.org/2000/svg"
   xmlns="http://www.w3.org/2000/svg"
   height="245.75999"
   width="245.75999"
   version="1.1"
   id="Layer_1"
   x="0px"
   y="0px"
   viewBox="0 0 245.75999 245.75999"
   enable-background="new 0 0 360 360"
   xml:space="preserve"><metadata
     id="metadata849"><rdf:RDF><cc:Work
         rdf:about=""><dc:format>image/svg+xml</dc:format><dc:type
           rdf:resource="http://purl.org/dc/dcmitype/StillImage" /><dc:title></dc:title></cc:Work></rdf:RDF></metadata><defs
     id="defs847" /><path
     style="fill:#ffffff;fill-opacity:1;stroke:none"
     id="path833"
     d="m 188.36,42.68 c 8.13,0 14.72,6.59 14.72,14.72 0,8.12 -6.59,14.71 -14.72,14.71 -8.12,0 -14.71,-6.59 -14.71,-14.71 0,-8.13 6.59,-14.72 14.71,-14.72 z" /><path
     style="fill:#ffffff;fill-opacity:1;stroke:none;stroke-opacity:1"
     id="path835"
     d="m 122.88,59.82 c 34.83,0 63.06,28.23 63.06,63.06 0,34.83 -28.23,63.06 -63.06,63.06 -34.83,0 -63.06,-28.23 -63.06,-63.06 0,-34.83 28.23,-63.06 63.06,-63.06 z m 41.07,63.06 c 0,-22.68 -18.39,-41.07 -41.07,-41.07 -22.68,0 -41.07,18.39 -41.07,41.07 0,22.68 18.39,41.07 41.07,41.07 22.68,0 41.07,-18.39 41.07,-41.07 z" /><path
     style="fill:#ffffff;fill-opacity:1;stroke:none"
     id="path837"
     d="m 245.02,72.22 c 0.6,13.1 0.74,17.29 0.74,50.66 0,33.37 -0.14,37.56 -0.74,50.66 -0.6,13.08 -2.67,22.01 -5.71,29.83 -3.14,8.08 -7.34,14.93 -14.17,21.77 -6.84,6.83 -13.69,11.03 -21.77,14.17 -7.82,3.04 -16.75,5.11 -29.83,5.71 -13.1,0.6 -17.29,0.74 -50.66,0.74 -33.37,0 -37.56,-0.14 -50.66,-0.74 -13.08,-0.6 -22.01,-2.67 -29.83,-5.71 C 34.31,236.17 27.46,231.97 20.62,225.14 13.79,218.3 9.59,211.45 6.45,203.37 3.41,195.55 1.34,186.62 0.74,173.54 0.14,160.44 0,156.25 0,122.88 0,89.51 0.14,85.32 0.74,72.22 1.34,59.14 3.41,50.21 6.45,42.39 9.59,34.31 13.79,27.46 20.62,20.62 27.46,13.79 34.31,9.59 42.39,6.45 50.21,3.41 59.14,1.34 72.22,0.74 85.32,0.14 89.51,0 122.88,0 c 33.37,0 37.56,0.14 50.66,0.74 13.08,0.6 22.01,2.67 29.83,5.71 8.08,3.14 14.93,7.34 21.77,14.17 6.83,6.84 11.03,13.69 14.17,21.77 3.04,7.82 5.11,16.75 5.71,29.83 z m -21.25,50.66 c 0,-32.86 -0.12,-36.75 -0.72,-49.73 -0.54,-12 -2.55,-18.51 -4.23,-22.85 -2.24,-5.74 -4.9,-9.84 -9.21,-14.15 -4.31,-4.31 -8.41,-6.97 -14.15,-9.21 -4.34,-1.68 -10.85,-3.69 -22.85,-4.23 -12.98,-0.6 -16.87,-0.72 -49.73,-0.72 -32.86,0 -36.75,0.12 -49.73,0.72 -12,0.54 -18.51,2.55 -22.85,4.23 -5.74,2.24 -9.84,4.9 -14.15,9.21 -4.31,4.31 -6.97,8.41 -9.21,14.15 -1.68,4.34 -3.69,10.85 -4.23,22.85 -0.6,12.98 -0.72,16.87 -0.72,49.73 0,32.86 0.12,36.75 0.72,49.73 0.54,12 2.55,18.51 4.23,22.85 2.24,5.74 4.9,9.84 9.21,14.15 4.31,4.31 8.41,6.97 14.15,9.21 4.34,1.68 10.85,3.69 22.85,4.23 12.98,0.6 16.87,0.72 49.73,0.72 32.86,0 36.75,-0.12 49.73,-0.72 12,-0.54 18.51,-2.55 22.85,-4.23 5.74,-2.24 9.84,-4.9 14.15,-9.21 4.31,-4.31 6.97,-8.41 9.21,-14.15 1.68,-4.34 3.69,-10.85 4.23,-22.85 0.6,-12.98 0.72,-16.87 0.72,-49.73 z" /><g
     transform="translate(-57.12,-57.12)"
     id="g841" /></svg>