<svg enable-background="new 0 0 360 360" version="1.1" viewBox="0 0 245.76 245.76" xml:space="preserve" xmlns="http://www.w3.org/2000/svg"><path d="m188.36 42.68c8.13 0 14.72 6.59 14.72 14.72 0 8.12-6.59 14.71-14.72 14.71-8.12 0-14.71-6.59-14.71-14.71 0-8.13 6.59-14.72 14.71-14.72z"/><path d="m122.88 59.82c34.83 0 63.06 28.23 63.06 63.06s-28.23 63.06-63.06 63.06-63.06-28.23-63.06-63.06 28.23-63.06 63.06-63.06zm41.07 63.06c0-22.68-18.39-41.07-41.07-41.07s-41.07 18.39-41.07 41.07 18.39 41.07 41.07 41.07 41.07-18.39 41.07-41.07z"/><path d="m245.02 72.22c0.6 13.1 0.74 17.29 0.74 50.66s-0.14 37.56-0.74 50.66c-0.6 13.08-2.67 22.01-5.71 29.83-3.14 8.08-7.34 14.93-14.17 21.77-6.84 6.83-13.69 11.03-21.77 14.17-7.82 3.04-16.75 5.11-29.83 5.71-13.1 0.6-17.29 0.74-50.66 0.74s-37.56-0.14-50.66-0.74c-13.08-0.6-22.01-2.67-29.83-5.71-8.08-3.14-14.93-7.34-21.77-14.17-6.83-6.84-11.03-13.69-14.17-21.77-3.04-7.82-5.11-16.75-5.71-29.83-0.6-13.1-0.74-17.29-0.74-50.66s0.14-37.56 0.74-50.66c0.6-13.08 2.67-22.01 5.71-29.83 3.14-8.08 7.34-14.93 14.17-21.77 6.84-6.83 13.69-11.03 21.77-14.17 7.82-3.04 16.75-5.11 29.83-5.71 13.1-0.6 17.29-0.74 50.66-0.74s37.56 0.14 50.66 0.74c13.08 0.6 22.01 2.67 29.83 5.71 8.08 3.14 14.93 7.34 21.77 14.17 6.83 6.84 11.03 13.69 14.17 21.77 3.04 7.82 5.11 16.75 5.71 29.83zm-21.25 50.66c0-32.86-0.12-36.75-0.72-49.73-0.54-12-2.55-18.51-4.23-22.85-2.24-5.74-4.9-9.84-9.21-14.15s-8.41-6.97-14.15-9.21c-4.34-1.68-10.85-3.69-22.85-4.23-12.98-0.6-16.87-0.72-49.73-0.72s-36.75 0.12-49.73 0.72c-12 0.54-18.51 2.55-22.85 4.23-5.74 2.24-9.84 4.9-14.15 9.21s-6.97 8.41-9.21 14.15c-1.68 4.34-3.69 10.85-4.23 22.85-0.6 12.98-0.72 16.87-0.72 49.73s0.12 36.75 0.72 49.73c0.54 12 2.55 18.51 4.23 22.85 2.24 5.74 4.9 9.84 9.21 14.15s8.41 6.97 14.15 9.21c4.34 1.68 10.85 3.69 22.85 4.23 12.98 0.6 16.87 0.72 49.73 0.72s36.75-0.12 49.73-0.72c12-0.54 18.51-2.55 22.85-4.23 5.74-2.24 9.84-4.9 14.15-9.21s6.97-8.41 9.21-14.15c1.68-4.34 3.69-10.85 4.23-22.85 0.6-12.98 0.72-16.87 0.72-49.73z"/></svg>
