<?xml version="1.0" encoding="UTF-8" standalone="no"?>
<!-- Created with Inkscape (http://www.inkscape.org/) -->

<svg
   xmlns:dc="http://purl.org/dc/elements/1.1/"
   xmlns:cc="http://creativecommons.org/ns#"
   xmlns:rdf="http://www.w3.org/1999/02/22-rdf-syntax-ns#"
   xmlns:svg="http://www.w3.org/2000/svg"
   xmlns="http://www.w3.org/2000/svg"
   xmlns:sodipodi="http://sodipodi.sourceforge.net/DTD/sodipodi-0.dtd"
   xmlns:inkscape="http://www.inkscape.org/namespaces/inkscape"
   version="1.1"
   id="svg815"
   xml:space="preserve"
   width="138.29131"
   height="138.39206"
   viewBox="0 0 138.29131 138.39206"
   sodipodi:docname="rainbow.svg"
   inkscape:version="0.92.2 (5c3e80d, 2017-08-06)"><metadata
     id="metadata821"><rdf:RDF><cc:Work
         rdf:about=""><dc:format>image/svg+xml</dc:format><dc:type
           rdf:resource="http://purl.org/dc/dcmitype/StillImage" /><dc:title></dc:title></cc:Work></rdf:RDF></metadata><defs
     id="defs819"><clipPath
       clipPathUnits="userSpaceOnUse"
       id="clipPath831"><path
         d="M 0,350 H 350 V 0 H 0 Z"
         id="path829"
         inkscape:connector-curvature="0" /></clipPath></defs><sodipodi:namedview
     pagecolor="#ffffff"
     bordercolor="#666666"
     borderopacity="1"
     objecttolerance="10"
     gridtolerance="10"
     guidetolerance="10"
     inkscape:pageopacity="0"
     inkscape:pageshadow="2"
     inkscape:window-width="1366"
     inkscape:window-height="705"
     id="namedview817"
     showgrid="false"
     inkscape:zoom="0.81216266"
     inkscape:cx="139.05083"
     inkscape:cy="28.806937"
     inkscape:window-x="-8"
     inkscape:window-y="-8"
     inkscape:window-maximized="1"
     inkscape:current-layer="g823" /><g
     id="g823"
     inkscape:groupmode="layer"
     inkscape:label="Pins"
     transform="matrix(1.3333333,0,0,-1.3333333,-195.95482,342.91847)"><g
       id="g930"
       transform="rotate(27.437717,218.56962,110.97112)"><g
         transform="translate(222.4442,273.7096)"
         id="g837"><path
           inkscape:connector-curvature="0"
           id="path839"
           style="fill:#e942aa;fill-opacity:1;fill-rule:nonzero;stroke:none"
           d="m 0,0 -5.037,-9.687 c 45.404,-23.61 63.135,-79.756 39.525,-125.16 l 9.688,-5.038 C 70.563,-89.139 50.746,-26.387 0,0" /></g><g
         transform="translate(217.4069,264.0222)"
         id="g841"><path
           inkscape:connector-curvature="0"
           id="path843"
           style="fill:#e52027;fill-opacity:1;fill-rule:nonzero;stroke:none"
           d="M 0,0 -5.037,-9.687 C 35.025,-30.519 50.67,-80.061 29.838,-120.123 l 9.687,-5.037 C 63.135,-79.756 45.404,-23.61 0,0" /></g><g
         transform="translate(212.3696,254.3348)"
         id="g845"><path
           inkscape:connector-curvature="0"
           id="path847"
           style="fill:#f25c1b;fill-opacity:1;fill-rule:nonzero;stroke:none"
           d="m 0,0 -5.037,-9.687 c 34.721,-18.055 48.279,-60.99 30.225,-95.711 l 9.687,-5.037 C 55.707,-70.373 40.062,-20.832 0,0" /></g><g
         transform="translate(207.3323,244.6474)"
         id="g849"><path
           inkscape:connector-curvature="0"
           id="path851"
           style="fill:#e9ea07;fill-opacity:1;fill-rule:nonzero;stroke:none"
           d="m 0,0 -5.037,-9.687 c 29.379,-15.277 40.852,-51.607 25.575,-80.986 l 9.687,-5.038 C 48.28,-60.99 34.721,-18.054 0,0" /></g><g
         transform="translate(202.2949,234.96)"
         id="g853"><path
           inkscape:connector-curvature="0"
           id="path855"
           style="fill:#2c935a;fill-opacity:1;fill-rule:nonzero;stroke:none"
           d="M 0,0 -5.037,-9.687 C 19,-22.187 28.387,-51.911 15.888,-75.949 l 9.687,-5.037 C 40.852,-51.607 29.379,-15.277 0,0" /></g><g
         transform="translate(197.2576,225.2726)"
         id="g857"><path
           inkscape:connector-curvature="0"
           id="path859"
           style="fill:#45b3bf;fill-opacity:1;fill-rule:nonzero;stroke:none"
           d="m 0,0 -5.037,-9.687 c 18.695,-9.722 25.996,-32.841 16.275,-51.537 l 9.687,-5.037 C 33.424,-42.224 24.037,-12.499 0,0" /></g><g
         transform="translate(192.2203,215.5852)"
         id="g861"><path
           inkscape:connector-curvature="0"
           id="path863"
           style="fill:#376fba;fill-opacity:1;fill-rule:nonzero;stroke:none"
           d="M 0,0 -5.037,-9.687 C 8.317,-16.631 13.532,-33.145 6.588,-46.499 l 9.687,-5.037 C 25.997,-32.841 18.696,-9.722 0,0" /></g><g
         transform="translate(187.183,205.8978)"
         id="g865"><path
           inkscape:connector-curvature="0"
           id="path867"
           style="fill:#642381;fill-opacity:1;fill-rule:nonzero;stroke:none"
           d="m 0,0 -5.037,-9.687 c 8.012,-4.167 11.141,-14.075 6.975,-22.087 l 9.687,-5.038 C 18.569,-23.458 13.354,-6.944 0,0" /></g></g></g></svg>