<?xml version="1.0" encoding="UTF-8"?>
<!-- Uploaded to: SVG Repo, www.svgrepo.com, Generator: SVG Repo Mixer Tools -->
<svg width="26" height="26" version="1.1" viewBox="0 0 .78 .78" xmlns="http://www.w3.org/2000/svg">
 <title>bookmark_line</title>
 <path d="m0.029627 0.72671c-0.010981-0.001573-0.021286-0.009231-0.026403-0.019626-0.003751-0.007622-0.004122-0.015557-0.001659-0.035423 0.030183-0.24341 0.13117-0.37843 0.33366-0.44612 0.026256-0.008778 0.057696-0.017442 0.083777-0.023089l0.00672-0.001452 1.03e-5 -0.05867c8.3e-6 -0.046927 2.484e-4 -0.059565 0.0012-0.063137 0.00276-0.010343 0.00974-0.018757 0.019438-0.023407 0.00397-0.0019013 0.00652-0.0024457 0.012949-0.0027482 0.00895-4.2061e-4 0.014105 7.9629e-4 0.020574 0.0048569 0.00372 0.0023334 0.28702 0.26742 0.29265 0.27383 0.00162 0.001849 0.00397 0.005522 0.0052 0.008167 2e-3 0.004269 0.00226 0.005885 0.00226 0.014349 0 0.008461-2.545e-4 0.010083-0.00226 0.014349-0.00124 0.002644-0.00359 0.006335-0.0052 0.008193-0.00221 0.002541-0.25109 0.23632-0.28542 0.26811-0.00316 0.00293-0.00786 0.006352-0.010428 0.007614-0.020049 0.009809-0.043941-0.001331-0.049766-0.023207-9.506e-4 -0.003561-0.00119-0.015621-0.0012-0.05928l-1.02e-5 -0.054814-0.00412 4.0359e-4c-0.018029 0.001763-0.031528 0.003483-0.044881 0.005695-0.081556 0.013545-0.15895 0.045712-0.22012 0.091491-0.017425 0.013041-0.026644 0.020904-0.040371 0.034434-0.020134 0.019844-0.031145 0.033002-0.044808 0.053542-0.009169 0.013784-0.01414 0.019319-0.020068 0.022343-0.006361 0.003241-0.014628 0.004615-0.021725 0.003595zm0.071483-0.16029c0.074072-0.059449 0.17526-0.10218 0.27734-0.11711 0.02653-0.00388 0.065685-0.006724 0.082465-0.00598 0.00748 3.2926e-4 0.00957 7.7157e-4 0.014466 0.003059 0.00936 0.004382 0.015518 0.011049 0.019446 0.021066 0.00132 0.00337 0.00158 0.008219 0.00198 0.03736l4.596e-4 0.033486 0.0977-0.091593c0.053735-0.050377 0.097673-0.091983 0.097641-0.09246-3.18e-5 -4.7695e-4 -0.043998-0.042077-0.0977-0.092443l-0.097641-0.091576-4.798e-4 0.033469c-2.869e-4 0.020003-8.49e-4 0.034519-0.0014 0.036079-0.00358 0.010172-0.012104 0.019695-0.020425 0.022807-0.00252 9.4199e-4 -0.011803 0.003154-0.020628 0.004909-0.1976 0.03932-0.30209 0.1203-0.35258 0.27322-0.005315 0.016095-0.010087 0.032523-0.009451 0.032523 1.7492e-4 0 0.00414-0.003068 0.008803-0.00681z" stroke-width=".028909"/>
</svg>
