<?xml version="1.0" encoding="UTF-8" standalone="no"?>
<!-- Uploaded to: SVG Repo, www.svgrepo.com, Generator: SVG Repo Mixer Tools -->

<svg
   width="20.262011"
   height="26"
   viewBox="0 0 0.6078603 0.77999999"
   version="1.1"
   id="svg1"
   sodipodi:docname="bookmark.svg"
   inkscape:version="1.3.2 (091e20e, 2023-11-25)"
   xmlns:inkscape="http://www.inkscape.org/namespaces/inkscape"
   xmlns:sodipodi="http://sodipodi.sourceforge.net/DTD/sodipodi-0.dtd"
   xmlns="http://www.w3.org/2000/svg"
   xmlns:svg="http://www.w3.org/2000/svg">
  <defs
     id="defs1" />
  <sodipodi:namedview
     id="namedview1"
     pagecolor="#ffffff"
     bordercolor="#000000"
     borderopacity="0.25"
     inkscape:showpageshadow="2"
     inkscape:pageopacity="0.0"
     inkscape:pagecheckerboard="0"
     inkscape:deskcolor="#d1d1d1"
     inkscape:zoom="0.295"
     inkscape:cx="269.49153"
     inkscape:cy="330.50847"
     inkscape:window-width="1512"
     inkscape:window-height="828"
     inkscape:window-x="-1"
     inkscape:window-y="38"
     inkscape:window-maximized="0"
     inkscape:current-layer="svg1" />
  <title
     id="title1">bookmark_line</title>
  <path
     d="M 0.02337924,0.1352066 C 0.02337924,0.07710274 0.07048198,0.03 0.12858584,0.03 h 0.35068863 c 0.0581057,0 0.10520659,0.04710274 0.10520659,0.1052066 v 0.56209777 c 0,0.0427875 -0.0483635,0.0676724 -0.0831798,0.0428051 L 0.30393015,0.59912908 0.10655767,0.74010943 C 0.07174131,0.76497675 0.02337924,0.74009188 0.02337924,0.69730437 Z m 0.1052066,-0.0350689 c -0.0193678,0 -0.03506887,0.015701 -0.03506887,0.0350689 V 0.66323147 L 0.27335361,0.53477772 c 0.0182919,-0.0130667 0.0428612,-0.0130667 0.0611531,0 L 0.51434333,0.66323147 V 0.1352066 c 0,-0.0193678 -0.0157003,-0.0350689 -0.035069,-0.0350689 z"
     id="形状"
     fill="#09244b"
     inkscape:label="d"
     style="fill:#000000;fill-rule:evenodd;stroke:none;stroke-width:0.0350689" />
</svg>
