<?xml version="1.0" encoding="UTF-8"?>
<svg width="26" height="26" version="1.1" viewBox="0 0 .78 .78" xmlns="http://www.w3.org/2000/svg">
 <title>bookmark_line</title>
 <path d="m0.10945 0.13521c0-0.058104 0.047103-0.10521 0.10521-0.10521h0.35069c0.058106 0 0.10521 0.047103 0.10521 0.10521v0.5621c0 0.042788-0.048364 0.067672-0.08318 0.042805l-0.19737-0.14098-0.19737 0.14098c-0.034816 0.024867-0.083178-1.755e-5 -0.083178-0.042805zm0.10521-0.035069c-0.019368 0-0.035069 0.015701-0.035069 0.035069v0.52802l0.17984-0.12845c0.018292-0.013067 0.042861-0.013067 0.061153 0l0.17984 0.12845v-0.52802c0-0.019368-0.0157-0.035069-0.035069-0.035069z" fill-rule="evenodd"/>
</svg>
